<svg xmlns="http://www.w3.org/2000/svg" width="972" height="152" fill="none">
  <g fill="#fff" clip-path="url(#a)">
    <path d="M39.08 0c1.616 0 3.092 1.41 3.092 3.102v41.455c5.553-7.192 15.323-11.492 26.428-11.492 24.6 0 39.08 13.96 39.08 37.788v74.943c0 1.621-1.406 3.102-3.093 3.102H68.53c-1.617 0-3.093-1.41-2.882-3.102V81.288c0-8.249-3.655-12.973-10.05-12.973-11.669 0-13.496 11.492-13.496 11.492v65.918c0 1.622-1.406 3.102-3.093 3.102H3.093c-1.617 0-3.093-1.41-3.093-3.102V3.102C0 1.481 1.406 0 3.093 0H39.15h-.07ZM224.638 35.955c1.616 0 3.092 1.41 3.092 3.102v107.021c0 1.41-1.406 2.89-3.092 2.89h-23.125c-1.616 0-2.671-1.41-3.303-3.102l-3.093-7.402c-7.38 8.248-19.47 13.536-32.754 13.536-26.639 0-42.383-17.061-42.383-44.98V38.987c0-1.622 1.406-3.102 3.093-3.102h36.057c1.617 0 3.093 1.41 3.093 3.102v62.816c0 6.98 4.287 11.703 10.824 11.703 8.013 0 12.511-6.556 12.511-6.556V38.987c0-1.622 1.406-3.102 3.093-3.102h36.057l-.07.07ZM274.19 44.557c6.537-7.192 18.415-11.492 32.121-11.492 14.76 0 26.006 5.922 30.505 16.215 8.012-10.293 21.086-16.215 35.424-16.215 27.412 0 43.578 16.85 43.578 45.191v67.751c0 1.833-1.054 2.891-2.881 2.891h-36.479c-1.828 0-2.882-1.058-2.882-2.891V84.39c-.422-8.249-3.866-12.902-10.051-12.902-11.668 0-13.495 11.492-13.285 11.492v63.027c0 1.833-1.054 2.891-2.881 2.891H310.88c-1.828 0-2.882-1.058-2.882-2.891V84.39c0-8.813-3.866-12.902-10.051-12.902-11.668 0-13.495 11.492-13.495 11.492v63.027c0 1.833-1.055 2.891-2.882 2.891h-36.479c-1.827 0-2.882-1.058-2.882-2.891V38.846c0-1.833 1.055-2.89 2.882-2.89h22.914c1.405 0 2.67.634 3.303 2.044l2.671 6.557h.211ZM461.083 44.557c6.537-7.192 20.454-11.492 32.965-11.492 27.834 0 43.016 12.902 43.016 44.98v67.751c0 1.621-1.406 3.102-3.093 3.102h-36.057c-1.617 0-3.093-1.41-2.882-3.102V84.39c0-8.249-3.655-12.902-10.051-12.902-11.668 0-13.495 11.492-13.495 11.492v62.816c0 1.621-1.406 3.102-3.093 3.102h-36.057c-1.617 0-3.093-1.41-3.093-3.102V38.846c0-1.833 1.054-2.89 2.882-2.89h22.914c1.405 0 2.67.634 3.303 2.044l2.671 6.557h.07ZM558.782 113.154c.422-1.198 1.617-1.41 2.671-.846 8.013 4.724 16.588 8.39 23.546 8.39 4.288.423 7.17-2.045 7.17-5.147 0-10.504-44.844-7.191-44.844-45.825 0-21.997 18.627-36.731 46.46-36.731 13.284 0 29.31 4.723 40.134 11.703 1.054.846 1.617 1.833 1.195 2.89l-10.473 24.253c-.421 1.198-1.616 1.41-2.671.846-8.012-5.147-16.587-8.39-23.546-8.39-4.287-.423-7.169 1.622-7.169 4.935 0 10.857 44.843 6.98 44.843 45.967 0 21.996-17.994 36.731-45.265 36.731-13.284 0-29.872-4.724-41.329-11.703-1.054-1.058-1.616-2.045-1.195-3.314l10.473-23.829v.07ZM686.775 0c1.617 0 3.093 1.41 3.093 2.89v68.175l19.047-32.642c.844-1.41 2.882-2.468 4.71-2.468h40.977c1.617 0 2.249 1.058 1.406 2.468l-30.294 50.338 37.041 57.74c1.055 1.41.211 2.467-1.405 2.467h-43.578c-1.406 0-3.515-1.057-4.288-2.467l-23.546-40.679v40.044c0 1.622-1.406 3.102-3.093 3.102h-36.057c-1.617 0-3.093-1.41-3.093-3.102V2.891c0-1.41 1.406-2.891 3.093-2.891h36.057-.07ZM811.675 0c1.617 0 3.093 1.41 3.093 2.89v142.906c0 1.621-1.406 3.102-3.093 3.102h-36.057c-1.617 0-3.093-1.41-3.093-3.102V2.891c0-1.41 1.406-2.891 3.093-2.891h36.057ZM868.608 0c1.617 0 3.093 1.41 3.093 2.89v142.906c0 1.621-1.406 3.102-3.093 3.102h-36.057c-1.617 0-3.093-1.41-3.093-3.102V2.891c0-1.41 1.406-2.891 3.093-2.891h36.057ZM894.614 113.154c.422-1.198 1.617-1.41 2.671-.846 8.013 4.724 16.588 8.39 23.546 8.39 4.288.423 7.169-2.045 7.169-5.147 0-10.504-44.843-7.191-44.843-45.825 0-21.997 18.626-36.731 46.46-36.731 13.284 0 29.31 4.723 40.134 11.703 1.054.846 1.617 1.833 1.195 2.89l-10.473 24.253c-.422 1.198-1.617 1.41-2.671.846-8.013-5.147-16.588-8.39-23.546-8.39-4.288-.423-7.169 1.622-7.169 4.935 0 10.857 44.843 6.98 44.843 45.967 0 21.996-17.994 36.731-45.265 36.731-13.284 0-29.872-4.724-41.329-11.703-1.054-1.058-1.616-2.045-1.195-3.314l10.473-23.829v.07Z"/>
  </g>
  <defs>
    <clipPath id="a">
      <path fill="#fff" d="M0 0h972v152H0z"/>
    </clipPath>
  </defs>
</svg>
